<svg width="70" height="70" viewBox="0 0 70 70" fill="none" xmlns="http://www.w3.org/2000/svg">
<path d="M54.4443 7.77777H23.3332C22.3018 7.77777 21.3127 8.18749 20.5834 8.9168C19.8541 9.64611 19.4443 10.6353 19.4443 11.6667H54.4443V58.3333H23.3332V39.2778H19.4443V58.3333C19.4443 59.3647 19.8541 60.3539 20.5834 61.0832C21.3127 61.8125 22.3018 62.2222 23.3332 62.2222H54.4443C55.4757 62.2222 56.4649 61.8125 57.1942 61.0832C57.9235 60.3539 58.3332 59.3647 58.3332 58.3333V11.6667C58.3332 10.6353 57.9235 9.64611 57.1942 8.9168C56.4649 8.18749 55.4757 7.77777 54.4443 7.77777V7.77777Z" fill="#412F0E"/>
<path d="M29.3997 35.8944C29.1961 36.0688 29.0308 36.2833 28.9141 36.5245C28.7974 36.7657 28.7318 37.0285 28.7215 37.2963C28.7111 37.5641 28.7562 37.8311 28.854 38.0806C28.9517 38.3301 29.1 38.5568 29.2895 38.7463C29.479 38.9358 29.7056 39.084 29.9552 39.1818C30.2047 39.2795 30.4717 39.3247 30.7395 39.3143C31.0073 39.304 31.27 39.2384 31.5113 39.1217C31.7525 39.005 31.967 38.8397 32.1413 38.6361L43.3997 27.3778L32.1608 16.1194C31.7888 15.8009 31.3103 15.6344 30.821 15.6533C30.3316 15.6722 29.8674 15.8751 29.5211 16.2214C29.1748 16.5677 28.9719 17.0319 28.953 17.5213C28.9341 18.0107 29.1006 18.4891 29.4191 18.8611L35.9719 25.2778H7.77745C7.26175 25.2778 6.76718 25.4826 6.40252 25.8473C6.03787 26.2119 5.83301 26.7065 5.83301 27.2222C5.83301 27.7379 6.03787 28.2325 6.40252 28.5971C6.76718 28.9618 7.26175 29.1667 7.77745 29.1667H35.9719L29.3997 35.8944Z" fill="#412F0E"/>
</svg>
