<svg width="53" height="53" viewBox="0 0 53 53" fill="none" xmlns="http://www.w3.org/2000/svg">
<path d="M10.3058 8.83333H33.8613V23.2611H36.8058V8.83333C36.8058 8.05242 36.4956 7.30349 35.9434 6.7513C35.3912 6.19911 34.6422 5.88889 33.8613 5.88889H10.3058C9.52486 5.88889 8.77593 6.19911 8.22374 6.7513C7.67155 7.30349 7.36133 8.05242 7.36133 8.83333V44.1667C7.36133 44.9476 7.67155 45.6965 8.22374 46.2487C8.77593 46.8009 9.52486 47.1111 10.3058 47.1111H33.8613C34.6422 47.1111 35.3912 46.8009 35.9434 46.2487C36.4956 45.6965 36.8058 44.9476 36.8058 44.1667H10.3058V8.83333Z" fill="#412F0E"/>
<path d="M41.4582 25.44C41.1766 25.1988 40.8143 25.0728 40.4438 25.0871C40.0733 25.1014 39.7218 25.255 39.4596 25.5172C39.1974 25.7794 39.0438 26.1309 39.0295 26.5014C39.0152 26.8719 39.1412 27.2342 39.3824 27.5158L44.3585 32.3889H23.0113C22.6208 32.3889 22.2464 32.544 21.9703 32.8201C21.6942 33.0962 21.5391 33.4707 21.5391 33.8611C21.5391 34.2516 21.6942 34.626 21.9703 34.9021C22.2464 35.1782 22.6208 35.3333 23.0113 35.3333H44.3585L39.3824 40.4272C39.2283 40.5592 39.1031 40.7216 39.0147 40.9043C38.9264 41.0869 38.8767 41.2859 38.8689 41.4886C38.8611 41.6914 38.8952 41.8936 38.9692 42.0825C39.0432 42.2714 39.1555 42.443 39.299 42.5865C39.4425 42.7299 39.6141 42.8422 39.803 42.9162C39.9919 42.9902 40.1941 43.0244 40.3968 43.0166C40.5996 43.0087 40.7985 42.9591 40.9812 42.8707C41.1638 42.7823 41.3262 42.6572 41.4582 42.5031L50.056 33.9642L41.4582 25.44Z" fill="#412F0E"/>
</svg>
